<svg width="100" height="100" viewBox="0 0 250 200" xmlns="http://www.w3.org/2000/svg">
<path fill-rule="evenodd" clip-rule="evenodd" d="M92 140C79.8497 140 70 130.374 70 118.5C70 106.626 79.8497 97 92 97C92.5167 97 93.0292 97.0174 93.537 97.0517C93.1842 95.0878 93 93.0654 93 91C93 72.2223 108.222 57 127 57C141.991 57 154.716 66.702 159.239 80.1695C160.31 80.0575 161.398 80 162.5 80C179.345 80 193 93.4315 193 110C193 125.741 180.675 138.727 165 139.978V140H108.508H92ZM103.996 140H97.0314H103.996Z" fill="none"/>
<path fill="none" d="M103.996 140H97.0314M92 140C79.8497 140 70 130.374 70 118.5C70 106.626 79.8497 97 92 97C92.5167 97 93.0292 97.0174 93.537 97.0517C93.1842 95.0878 93 93.0654 93 91C93 72.2223 108.222 57 127 57C141.991 57 154.716 66.702 159.239 80.1695C160.31 80.0575 161.398 80 162.5 80C179.345 80 193 93.4315 193 110C193 125.741 180.675 138.727 165 139.978V140H108.508H92Z" stroke="#FCAE4D" stroke-width="2.5" stroke-linecap="round"/>
<path fill="none" d="M127.5 126C130.538 126 133 123.538 133 120.5C133 117.462 130.538 115 127.5 115C124.462 115 122 117.462 122 120.5C122 123.538 124.462 126 127.5 126Z" stroke="#FCAE4D" stroke-width="2.5"/>
<path fill="none" d="M112 109L119 103.507L112 98.2776" stroke="#FCAE4D" stroke-width="2.5" stroke-linecap="round" stroke-linejoin="round"/>
<path fill="none" d="M143 109L136 103.507L143 98.2776" stroke="#FCAE4D" stroke-width="2.5" stroke-linecap="round" stroke-linejoin="round"/>
<path fill="none" d="M137 67C143.509 68.7226 148.648 73.8129 150.44 80.2932" stroke="#FCAE4D" stroke-width="2.5" stroke-linecap="round"/>
<path fill="none" d="M158 50C159.657 50 161 48.6569 161 47C161 45.3431 159.657 44 158 44C156.343 44 155 45.3431 155 47C155 48.6569 156.343 50 158 50Z" stroke="#FCAE4D" stroke-width="2"/>
<path fill="none" d="M189 66C190.657 66 192 64.6569 192 63C192 61.3431 190.657 60 189 60C187.343 60 186 61.3431 186 63C186 64.6569 187.343 66 189 66Z" fill="#FCAE4D"/>
<path fill="none" d="M165.757 57.7573L174.116 66.1156M174.243 57.7573L165.884 66.1156L174.243 57.7573Z" stroke="#FCAE4D" stroke-width="2.5" stroke-linecap="round" stroke-linejoin="round"/>
<path fill="none" d="M71.4038 75.5962L77.4038 81.5962M77.4038 75.5962L71.4038 81.5962L77.4038 75.5962Z" stroke="#FCAE4D" stroke-width="2.5" stroke-linecap="round" stroke-linejoin="round"/>
<path fill="none" d="M85 69C86.6569 69 88 67.6569 88 66C88 64.3431 86.6569 63 85 63C83.3431 63 82 64.3431 82 66C82 67.6569 83.3431 69 85 69Z" fill="#FCAE4D"/>
</svg>