<svg xmlns="http://www.w3.org/2000/svg" xmlns:xlink="http://www.w3.org/1999/xlink" version="1.1" width="48px" height="48px" viewBox="0 0 400 400" xml:space="preserve">
<defs>
</defs>
<g transform="matrix(4.17 0 0 4.17 200 200)"  >
<path style="stroke: none; stroke-width: 1; stroke-dasharray: none; stroke-linecap: butt; stroke-dashoffset: 0; stroke-linejoin: miter; stroke-miterlimit: 4; fill: none; fill-rule: nonzero; opacity: 1;"  transform=" translate(-24, -24)" d="M 0 0 h 48 v 48 H 0 V 0 z" stroke-linecap="round" />
</g>
<g transform="matrix(4.17 0 0 4.17 200 200)"  >
<path style="stroke: none; stroke-width: 1; stroke-dasharray: none; stroke-linecap: butt; stroke-dashoffset: 0; stroke-linejoin: miter; stroke-miterlimit: 4; fill: #FCAE4D; fill-rule: nonzero; opacity: 1;"  transform=" translate(-24, -24)" d="M 22 30 h 4 v 4 h -4 z m 0 -16 h 4 v 12 h -4 z m 1.99 -10 C 12.94 4 4 12.95 4 24 s 8.94 20 19.99 20 S 44 35.05 44 24 S 35.04 4 23.99 4 z M 24 40 c -8.84 0 -16 -7.16 -16 -16 S 15.16 8 24 8 s 16 7.16 16 16 s -7.16 16 -16 16 z" stroke-linecap="round" />
</g>
</svg>
